<svg width="44" height="44" viewBox="0 0 44 44" fill="none" xmlns="http://www.w3.org/2000/svg">
<circle cx="22" cy="22" r="21.5" fill="#F1DB68" stroke="#2B2D3F"/>
<mask id="mask0" style="mask-type:alpha" maskUnits="userSpaceOnUse" x="1" y="1" width="42" height="42">
<circle cx="22" cy="22" r="21" fill="#6CBEED"/>
</mask>
<g mask="url(#mask0)">
<path d="M20.898 10.4114L18.9794 19.3648C19.6189 20.6437 20.461 21.0647 22.1771 21.9227C23.4561 22.5623 25.3748 24.5789 25.3748 27.4112C25.3748 30.8527 18.8223 33.2025 15 35.5C10.2988 38.3258 5.7637 42.3836 4 44.5L12.1163 46.9594L18 47C18.5 44.5 21.6903 40.9265 24.7471 39.5C32.2471 36 36.2469 30.1347 36.2469 23.8416C36.2469 20.0044 36.2469 13.6088 29.8515 10.4114C26.162 8.56689 21.5375 8.49251 20.898 10.4114Z" fill="white"/>
<path d="M8.74707 12.9695L20.8982 10.4114L24.7354 12.9695L23.4564 18.7253L18.9796 19.3649L8.74707 12.9695Z" fill="#F47D3A"/>
<circle cx="27.9333" cy="14.8881" r="1.9186" fill="#202234"/>
<circle cx="29.2118" cy="14.8881" r="0.639535" fill="white"/>
<mask id="mask1" style="mask-type:alpha" maskUnits="userSpaceOnUse" x="8" y="10" width="17" height="10">
<path d="M8.74707 12.9695L20.8982 10.4114L24.7354 12.9695L23.4564 18.7253L18.9796 19.3649L8.74707 12.9695Z" fill="#FFAD72"/>
</mask>
<g mask="url(#mask1)">
<path d="M20.898 14.8882C20.898 15.5946 20.3253 16.1673 19.6189 16.1673C18.9125 16.1673 18.3398 15.5946 18.3398 14.8882C18.3398 14.7968 18.3494 14.7076 18.3677 14.6216C18.4903 14.0432 19.0039 13.6091 19.6189 13.6091C20.3253 13.6091 20.898 14.1818 20.898 14.8882Z" fill="#202234"/>
<path d="M19.6192 14.8881L8.74707 12.9695" stroke="#202234"/>
</g>
</g>
</svg>
