<svg width="16" height="16" viewBox="0 0 16 16" fill="none" xmlns="http://www.w3.org/2000/svg">
<g clip-path="url(#clip0_8719_57656)">
<path fill-rule="evenodd" clip-rule="evenodd" d="M11 13.25H9.5V14.75H11C11.9665 14.75 12.75 13.9665 12.75 13V5C12.75 4.0335 11.9665 3.25 11 3.25H3C2.0335 3.25 1.25 4.0335 1.25 5V6.5H2.75V5C2.75 4.86193 2.86193 4.75 3 4.75H11C11.1381 4.75 11.25 4.86193 11.25 5V13C11.25 13.1381 11.1381 13.25 11 13.25Z" fill="#F7F7F7"/>
<path fill-rule="evenodd" clip-rule="evenodd" d="M14 10.25H12V11.75H14C14.9665 11.75 15.75 10.9665 15.75 10V2C15.75 1.0335 14.9665 0.25 14 0.25H6C5.0335 0.25 4.25 1.0335 4.25 2V4H5.75V2C5.75 1.86193 5.86193 1.75 6 1.75H14C14.1381 1.75 14.25 1.86193 14.25 2V10C14.25 10.1381 14.1381 10.25 14 10.25Z" fill="#F7F7F7"/>
<path fill-rule="evenodd" clip-rule="evenodd" d="M8.88889 16H1.11111C0.816426 16 0.533811 15.8829 0.325437 15.6746C0.117063 15.4662 0 15.1836 0 14.8889V7.11111C0 6.81643 0.117063 6.53381 0.325437 6.32544C0.533811 6.11706 0.816426 6 1.11111 6H8.88889C9.18357 6 9.46619 6.11706 9.67456 6.32544C9.88294 6.53381 10 6.81643 10 7.11111V14.8889C10 15.1836 9.88294 15.4662 9.67456 15.6746C9.46619 15.8829 9.18357 16 8.88889 16ZM3.33333 13L2.66667 12L1.33333 14.6667H8.66667L5.66667 10L3.33333 13ZM2.66667 10.6667C3.21895 10.6667 3.66667 10.219 3.66667 9.66667C3.66667 9.11438 3.21895 8.66667 2.66667 8.66667C2.11438 8.66667 1.66667 9.11438 1.66667 9.66667C1.66667 10.219 2.11438 10.6667 2.66667 10.6667Z" fill="#F7F7F7"/>
</g>
<defs>
<clipPath id="clip0_8719_57656">
<rect width="16" height="16" fill="white"/>
</clipPath>
</defs>
</svg>