<svg width="22" height="14" viewBox="0 0 22 14" fill="none" xmlns="http://www.w3.org/2000/svg">
<mask id="path-1-inside-1" fill="white">
<path fill-rule="evenodd" clip-rule="evenodd" d="M14.0004 3.18182C14.0004 4.43705 13.2735 5.52252 12.2177 6.04028V7.95983C12.8509 8.27035 13.3658 8.78507 13.6765 9.41814H15.5973C16.1152 8.36289 17.2004 7.63647 18.4553 7.63647C20.2125 7.63647 21.6371 9.06102 21.6371 10.8183C21.6371 12.5756 20.2125 14.0001 18.4553 14.0001C17.2003 14.0001 16.115 13.2736 15.5971 12.2181H13.6767C13.1588 13.2736 12.0735 14.0001 10.8185 14.0001C9.06127 14.0001 7.63672 12.5756 7.63672 10.8183C7.63672 9.56371 8.36282 8.47871 9.41772 7.96063V6.56168L6.19269 9.78671C6.3035 10.1102 6.36364 10.4572 6.36364 10.8183C6.36364 12.5756 4.93909 14.0001 3.18182 14.0001C1.42455 14.0001 0 12.5756 0 10.8183C0 9.06102 1.42455 7.63647 3.18182 7.63647C3.54254 7.63647 3.88925 7.6965 4.21249 7.80711L7.8073 4.2123C7.69672 3.88912 7.63672 3.54247 7.63672 3.18182C7.63672 1.42455 9.06127 0 10.8185 0C12.5758 0 14.0004 1.42455 14.0004 3.18182Z"/>
</mask>
<path d="M12.2177 6.04028L11.7774 5.14244C11.4348 5.31044 11.2177 5.65873 11.2177 6.04028H12.2177ZM12.2177 7.95983H11.2177C11.2177 8.34138 11.4348 8.68967 11.7774 8.85767L12.2177 7.95983ZM13.6765 9.41814L12.7788 9.85876C12.9469 10.2012 13.2951 10.4181 13.6765 10.4181V9.41814ZM15.5973 9.41814V10.4181C15.9787 10.4181 16.3269 10.2012 16.495 9.85876L15.5973 9.41814ZM15.5971 12.2181L16.4949 11.7776C16.3268 11.4352 15.9786 11.2181 15.5971 11.2181V12.2181ZM13.6767 12.2181V11.2181C13.2952 11.2181 12.947 11.4352 12.7789 11.7776L13.6767 12.2181ZM9.41772 7.96063L9.85855 8.85822C10.2008 8.69012 10.4177 8.34197 10.4177 7.96063H9.41772ZM9.41772 6.56168H10.4177C10.4177 6.15722 10.1741 5.79258 9.8004 5.6378C9.42673 5.48302 8.99661 5.56857 8.71061 5.85457L9.41772 6.56168ZM6.19269 9.78671L5.48558 9.07961C5.21564 9.34954 5.12294 9.74961 5.24665 10.1108L6.19269 9.78671ZM4.21249 7.80711L3.88872 8.75325C4.24981 8.87681 4.64973 8.78408 4.91959 8.51422L4.21249 7.80711ZM7.8073 4.2123L8.5144 4.91941C8.78425 4.64957 8.87698 4.24967 8.75345 3.8886L7.8073 4.2123ZM12.658 6.93813C14.0432 6.25881 15.0004 4.83303 15.0004 3.18182H13.0004C13.0004 4.04107 12.5038 4.78622 11.7774 5.14244L12.658 6.93813ZM13.2177 7.95983V6.04028H11.2177V7.95983H13.2177ZM14.5742 8.97752C14.1659 8.1456 13.4901 7.47005 12.658 7.06198L11.7774 8.85767C12.2117 9.07065 12.5657 9.42455 12.7788 9.85876L14.5742 8.97752ZM15.5973 8.41814H13.6765V10.4181H15.5973V8.41814ZM18.4553 6.63647C16.8046 6.63647 15.3791 7.59301 14.6996 8.97752L16.495 9.85876C16.8513 9.13276 17.5963 8.63647 18.4553 8.63647V6.63647ZM22.6371 10.8183C22.6371 8.50874 20.7648 6.63647 18.4553 6.63647V8.63647C19.6602 8.63647 20.6371 9.61331 20.6371 10.8183H22.6371ZM18.4553 15.0001C20.7648 15.0001 22.6371 13.1278 22.6371 10.8183H20.6371C20.6371 12.0233 19.6602 13.0001 18.4553 13.0001V15.0001ZM14.6994 12.6587C15.3789 14.0434 16.8044 15.0001 18.4553 15.0001V13.0001C17.5962 13.0001 16.8512 12.5037 16.4949 11.7776L14.6994 12.6587ZM13.6767 13.2181H15.5971V11.2181H13.6767V13.2181ZM10.8185 15.0001C12.4694 15.0001 13.8949 14.0434 14.5744 12.6587L12.7789 11.7776C12.4226 12.5037 11.6776 13.0001 10.8185 13.0001V15.0001ZM6.63672 10.8183C6.63672 13.1278 8.50898 15.0001 10.8185 15.0001V13.0001C9.61355 13.0001 8.63672 12.0233 8.63672 10.8183H6.63672ZM8.97689 7.06304C7.59286 7.74277 6.63672 9.16794 6.63672 10.8183H8.63672C8.63672 9.95948 9.13279 9.21466 9.85855 8.85822L8.97689 7.06304ZM8.41772 6.56168V7.96063H10.4177V6.56168H8.41772ZM6.89979 10.4938L10.1248 7.26878L8.71061 5.85457L5.48558 9.07961L6.89979 10.4938ZM5.24665 10.1108C5.3222 10.3313 5.36364 10.5689 5.36364 10.8183H7.36364C7.36364 10.3455 7.28479 9.88908 7.13872 9.46266L5.24665 10.1108ZM5.36364 10.8183C5.36364 12.0233 4.3868 13.0001 3.18182 13.0001V15.0001C5.49137 15.0001 7.36364 13.1278 7.36364 10.8183H5.36364ZM3.18182 13.0001C1.97683 13.0001 1 12.0233 1 10.8183H-1C-1 13.1278 0.872264 15.0001 3.18182 15.0001V13.0001ZM1 10.8183C1 9.61331 1.97683 8.63647 3.18182 8.63647V6.63647C0.872264 6.63647 -1 8.50874 -1 10.8183H1ZM3.18182 8.63647C3.43094 8.63647 3.66832 8.67783 3.88872 8.75325L4.53625 6.86098C4.11017 6.71517 3.65414 6.63647 3.18182 6.63647V8.63647ZM7.10019 3.5052L3.50538 7.10001L4.91959 8.51422L8.5144 4.91941L7.10019 3.5052ZM6.63672 3.18182C6.63672 3.65406 6.71539 4.11 6.86114 4.53601L8.75345 3.8886C8.67806 3.66823 8.63672 3.43089 8.63672 3.18182H6.63672ZM10.8185 -1C8.50898 -1 6.63672 0.872264 6.63672 3.18182H8.63672C8.63672 1.97683 9.61355 1 10.8185 1V-1ZM15.0004 3.18182C15.0004 0.872264 13.1281 -1 10.8185 -1V1C12.0235 1 13.0004 1.97683 13.0004 3.18182H15.0004Z" fill="#D9FFE1" mask="url(#path-1-inside-1)"/>
</svg>
